<svg width="5176" height="5182" viewBox="0 0 5176 5182" fill="none" xmlns="http://www.w3.org/2000/svg">
<path d="M985.359 2590.61C987.923 2631.27 989.953 2686.81 995.362 2742.02C999.99 2789.26 1007.62 2836.27 1015.48 2883.12C1027.9 2957.14 1049.76 3028.89 1070.84 3100.74C1077.87 3124.73 1088.28 3147.75 1097.41 3171.12C1100.93 3180.15 1105.33 3188.83 1109.04 3197.8C1174.5 3355.95 1261.87 3500.75 1372.57 3631.45C1440.97 3712.21 1516.24 3785.84 1598.85 3852C1764.41 3984.6 1948.76 4081.4 2152.06 4141.92C2236.25 4166.98 2321.81 4185.96 2409.24 4195.26C2459.15 4200.56 2509.2 4205.62 2559.32 4207.7C2626.77 4210.49 2694.18 4207.28 2761.47 4200.78C2831.76 4194 2901.23 4182.72 2969.95 4166.72C3121.77 4131.39 3265.15 4074.59 3400.18 3996.74C3564.42 3902.05 3706.75 3781.3 3827.68 3635.44C3922.31 3521.28 3999.02 3395.96 4058.59 3260.15C4138.45 3078.11 4182.77 2887.52 4191.27 2689.2C4195.08 2600.28 4194.52 2511.08 4181.96 2422.34C4171.96 2351.6 4160.03 2281.36 4142.43 2212.12C4109.46 2082.43 4060.64 1958.87 3997.67 1840.91C3975.24 1798.89 3952.47 1757.03 3928.52 1715.87C3910.3 1684.54 3884.87 1658.42 3862.74 1629.93C3775.31 1517.43 3677.09 1416.04 3564.88 1328.25C3448.12 1236.91 3321.18 1163.09 3184.24 1106.22C3092.36 1068.06 2997.24 1040.43 2900.89 1016.56C2874.77 1010.09 2848.77 1002.84 2822.33 998.045C2798.1 993.654 2773.42 991.256 2748.82 989.486C2702.21 986.134 2655.5 981.334 2608.86 981.732C2539.2 982.33 2469.47 985.446 2399.96 990.306C2354.32 993.497 2308.66 999.715 2263.7 1008.21C2229.64 1014.65 2196.74 1027.13 2163.19 1036.39C2091.7 1056.11 2021.71 1080.2 1953.5 1109.22C1711.28 1212.26 1506.85 1365.82 1340.97 1570.2C1243.86 1689.85 1166.28 1821.29 1107.44 1963.78C1041.98 2122.29 1003.7 2287.27 990.361 2458.04C987.309 2497.12 987.303 2536.44 985.359 2590.61ZM5.95024 2075.74C192.066 2027.44 376.564 1979.55 562.001 1931.42C605.214 1829.65 648.432 1727.87 691.806 1625.72C593.516 1457.32 495.47 1289.34 398.026 1122.38C641.153 879.43 877.289 632.686 1118.88 388.916C1204.58 436.178 1284.96 489.662 1367.83 538.945C1450.86 588.322 1533.21 638.821 1615.62 688.68C1721.88 643.636 1827.36 598.919 1932.83 554.21C1980.62 370.421 2028.15 187.661 2076.11 3.24902C2085.04 3.24902 2092.86 3.26076 2100.68 3.24609C2166.92 3.12343 2233.15 3.03795 2299.39 2.86328C2559.46 2.17395 2819.54 1.40734 3079.61 0.958008C3088.33 0.943341 3097.05 4.02868 3105.94 5.70068C3154.52 192.178 3202.47 376.227 3250.26 559.663C3355.87 601.638 3460.34 643.153 3565.22 684.833C3724.38 589.474 3883.2 494.317 4042.69 398.759C4050.44 405.01 4057.38 409.699 4063.25 415.466C4239.74 588.63 4416.12 761.904 4592.52 935.154C4650.8 992.392 4709.09 1049.61 4767.36 1106.86C4771.38 1110.81 4775.22 1114.93 4777.75 1117.53C4679.21 1283.07 4581.56 1447.12 4484.67 1609.89C4528.54 1718.53 4571.27 1824.32 4614.03 1930.2C4798.58 1977.36 4981.99 2024.23 5163.6 2070.64C5173.01 2079.37 5173.62 2088.75 5173.62 2098.76C5173.64 2328.82 5173.66 2558.88 5174 2788.94C5174.14 2882.54 5175.09 2976.13 5175.48 3069.73C5175.53 3080.22 5174.38 3090.71 5173.71 3102.5C4991.01 3151.08 4808.93 3199.49 4625.78 3248.19C4578.75 3354.38 4531.84 3460.3 4485.83 3564.16C4583.03 3730.68 4678.99 3895.1 4775.07 4059.69C4534.82 4302.91 4294.87 4545.84 4054.01 4789.67C3886.68 4692.39 3721.29 4596.24 3556.75 4500.58C3518.98 4511.05 3295.79 4603.95 3241.74 4631.75C3194.14 4812.85 3146.06 4995.78 3097.93 5178.93C3089.52 5178.93 3083.02 5178.93 3076.51 5178.93C2845.57 5179.1 2614.63 5179.07 2383.69 5179.52C2287.45 5179.7 2191.21 5180.82 2094.97 5181.78C2085.22 5181.88 2076.72 5180.07 2068.5 5172.48C2024.87 4991.21 1980.97 4808.86 1936.89 4625.74C1829.32 4583.23 1722 4540.83 1610.96 4496.95C1451.1 4593.1 1288.65 4690.81 1124.61 4789.48C1122.17 4787.42 1118.36 4784.64 1115.06 4781.35C884.331 4550.65 653.596 4319.95 423.114 4089.01C413.662 4079.54 406.633 4067.65 397.738 4055.91C497.501 3894.89 596.889 3734.47 695.224 3575.75C644.917 3463.54 595.189 3352.64 544.998 3240.69C365.652 3193.79 185.542 3146.68 2.72221 3098.87C2.30354 3096.32 0.787585 3091.42 0.796918 3086.52C1.03158 2958.03 1.4129 2829.54 1.79423 2701.05C2.27823 2538.15 2.80092 2375.25 3.26892 2212.35C3.37159 2176.58 3.15293 2140.81 3.44226 2105.05C3.5156 2095.9 4.9649 2086.77 5.95024 2075.74" fill="#521B83"/>
<path d="M3778.92 3235.12C3778.08 3236.03 3777.23 3236.95 3776.39 3237.86C3775.44 3236.92 3774.49 3235.99 3773.55 3235.06C3774.62 3234.37 3775.7 3233.69 3776.78 3233.01C3777.49 3233.71 3778.21 3234.42 3778.92 3235.12Z" fill="#521B83"/>
<path d="M1048.53 2976.43C1048.53 2975.59 1048.45 2975.18 1048.57 2974.83C1048.61 2974.72 1049.17 2974.79 1049.49 2974.78C1049.23 2975.21 1048.98 2975.65 1048.53 2976.43Z" fill="#521B83"/>
<path d="M3741.06 2843.75L3741.32 2844.62L3740.56 2844.49L3741.06 2843.75Z" fill="#521B83"/>
<path d="M1675.62 3893.4C1673.89 3892.54 1672.15 3891.68 1670.42 3890.82L1670.28 3890.96C1672.04 3891.79 1673.79 3892.63 1675.55 3893.46L1675.62 3893.4Z" fill="#521B83"/>
<path d="M1670.42 3890.82L1670.28 3890.96L1670.42 3890.82Z" fill="#521B83"/>
<path d="M1675.55 3893.46L1675.62 3893.4L1675.55 3893.46Z" fill="#521B83"/>
<path d="M3018.84 646.792C3021.84 646.055 3022.27 645.847 3022.69 645.859C3054.33 646.736 3066.71 662.301 3058.93 695.673C3057.83 700.371 3057 705.135 3055.75 709.789C3052.88 720.495 3046.13 727.283 3034.52 729.515C3026.04 728.527 3017 727.472 3006.15 726.207C3010.5 698.976 3014.68 672.819 3018.84 646.792Z" fill="#521B83"/>
<path d="M1635.34 4265.45C1624.47 4283.01 1614.34 4301 1602.6 4317.87C1592.11 4332.93 1581.15 4331.72 1570 4314.34C1581.17 4295.58 1591.9 4275.45 1604.74 4256.77C1613.32 4244.27 1629.05 4248.62 1635.34 4265.45Z" fill="#521B83"/>
<path d="M1717.23 4124.76C1724.31 4130.18 1724.37 4136.55 1721.51 4144.64C1715.11 4162.68 1702.35 4176.09 1689.97 4189.69C1682.92 4197.43 1674 4197.78 1667.32 4192.68C1660.76 4187.68 1658.78 4178.76 1664.76 4170.13C1674.24 4156.42 1684.78 4143.38 1695.64 4130.72C1700.98 4124.5 1708.54 4121.56 1717.23 4124.76Z" fill="#521B83"/>
<path d="M3377.5 1002.37C3391.42 972.993 3404.18 946.065 3417.66 917.625C3433.04 925.116 3448.11 930.664 3461.13 939.309C3473.48 947.513 3471.26 962.144 3469.15 974.634C3465.5 996.252 3443.49 1016.05 3421.62 1018.62C3417.81 1019.06 3413.46 1018.82 3409.99 1017.38C3399.54 1013.03 3389.39 1007.93 3377.5 1002.37Z" fill="#521B83"/>
<path d="M3443.67 862.692C3456.46 835.756 3467.74 812.007 3479.77 786.675C3493.59 794.223 3506.12 801.072 3517.67 807.381C3528.01 831.788 3516.74 864.667 3494.74 875.969C3490.67 878.06 3484.84 879.968 3480.98 878.629C3468.76 874.392 3457.09 868.575 3443.67 862.692Z" fill="#521B83"/>
<path d="M3511.59 923.469C3511.28 923.23 3510.97 922.991 3510.67 922.753C3511.09 922.873 3511.51 922.993 3511.94 923.113L3511.59 923.469Z" fill="#521B83"/>
<path d="M2656.42 677.139V598.198C2673.61 595.589 2688.6 599.593 2703.13 605.897C2705.83 607.067 2708.25 609.43 2710.17 611.757C2724.2 628.685 2717.29 665.29 2698.22 675.742C2689.47 680.535 2670.07 681.294 2656.42 677.139Z" fill="#521B83"/>
<path d="M3700.03 925.317C3714.71 924.185 3724.55 931.795 3731.89 943.077C3737.47 951.635 3734.4 959.697 3729.28 967.623C3705.39 1004.62 3681.73 1041.76 3657.9 1078.8C3652.42 1087.31 3646.89 1095.82 3640.87 1103.95C3632.31 1115.5 3621.23 1117.89 3608.34 1111.6C3589.92 1102.62 3584.1 1082.66 3595.09 1065.46C3621.9 1023.53 3648.9 981.734 3675.59 939.739C3681.48 930.485 3688.6 924.287 3700.03 925.317Z" fill="#521B83"/>
<path d="M3559.48 1140.46L3559.33 1140.6L3559.48 1140.46Z" fill="#521B83"/>
<path d="M3559.33 1140.6L3559.74 1140.92L3559.48 1140.46L3559.33 1140.6Z" fill="#521B83"/>
<path d="M3309.44 754.644C3307.5 761.796 3306.26 769.234 3303.49 776.049C3289.25 811.032 3274.53 845.817 3260.17 880.748C3255.09 893.089 3249.37 904.749 3238.3 913.092C3226.08 922.297 3210.95 924.921 3201.51 918.853C3191.99 912.738 3186.05 895.737 3190.64 882.025C3200.41 852.898 3211.2 824.117 3221.68 795.233C3228.88 775.397 3235.41 755.253 3243.94 736C3247.63 727.668 3254.55 719.83 3261.9 714.289C3271.54 707.028 3284.59 710.24 3294.3 719.649C3302.49 727.588 3308.13 741.605 3309.44 754.644Z" fill="#521B83"/>
<path d="M3343.02 809.571C3343.07 808.557 3343.13 807.543 3343.18 806.529L3344.01 806.575C3343.95 807.59 3343.89 808.603 3343.83 809.618C3343.56 809.602 3343.29 809.586 3343.02 809.571Z" fill="#521B83"/>
<path d="M3207.12 954.178L3206.36 953.739L3207.2 953.464L3207.12 954.178Z" fill="#521B83"/>
<path d="M3147.52 851.098L3147.75 851.89L3147.09 851.776L3147.52 851.098Z" fill="#521B83"/>
<path d="M2241.68 850.582C2230.28 780.749 2219.19 712.839 2207.79 643.002C2225.42 640.651 2241.79 637.814 2258.27 636.527C2267.85 635.779 2278.21 645.495 2280.76 657.451C2284.78 676.338 2287.85 695.447 2290.75 714.55C2294.97 742.367 2298.66 770.262 2302.6 798.121C2302.79 799.426 2303.25 800.691 2303.44 801.995C2307.77 830.523 2301.36 839.511 2273.01 844.73C2263.55 846.471 2254.11 848.258 2241.68 850.582Z" fill="#521B83"/>
<path d="M4119.5 1666.9C4118.57 1666.78 4117.9 1666.7 4117.23 1666.62C4117.44 1666.34 4117.78 1665.78 4117.83 1665.81C4118.35 1666.07 4118.82 1666.43 4119.5 1666.9Z" fill="#521B83"/>
<path d="M2258.73 4604.34C2241.84 4604.51 2230.31 4592.56 2233.21 4576.85C2243.83 4519.42 2254.66 4462.03 2265.77 4404.69C2268.6 4390.12 2283.29 4381.4 2297.62 4384.59C2311.92 4387.78 2318.31 4400.08 2315.55 4415.9C2308.76 4454.82 2302.68 4493.87 2296.25 4532.85C2293.68 4548.45 2291.01 4564.03 2288.25 4579.59C2285.62 4594.43 2273.87 4604.19 2258.73 4604.34Z" fill="#521B83"/>
<path d="M1747.18 825.871C1765.29 848.154 1783.41 870.437 1803.41 895.027C1789.56 900.725 1777.4 905.733 1762.71 911.779C1756.38 882.695 1750.35 855.001 1744.33 827.305C1745.28 826.826 1746.23 826.349 1747.18 825.871Z" fill="#521B83"/>
<path d="M4174.14 1257.09L4173.99 1257.25L4174.14 1257.09Z" fill="#521B83"/>
<path d="M4173.99 1257.25L4174.78 1257.75L4174.14 1257.09L4173.99 1257.25Z" fill="#521B83"/>
</svg>
